<svg width="175" height="24" viewBox="0 0 175 24" fill="none" xmlns="http://www.w3.org/2000/svg">
<g clip-path="url(#clip0_16_6)">
<path fill-rule="evenodd" clip-rule="evenodd" d="M2 6H14L12 12L14 18H2L4 12L2 6Z" fill="#121417"/>
</g>
<path d="M33.26 18.5V5.54H35.213L39.695 14.72L44.177 5.54H46.13V18.5H44.105V10.193L40.127 18.5H39.263L35.294 10.193V18.5H33.26ZM53.0774 18.77C52.0934 18.77 51.2294 18.557 50.4854 18.131C49.7414 17.705 49.1594 17.114 48.7394 16.358C48.3254 15.602 48.1184 14.732 48.1184 13.748C48.1184 12.686 48.3224 11.765 48.7304 10.985C49.1384 10.199 49.7054 9.59 50.4314 9.158C51.1574 8.726 51.9974 8.51 52.9514 8.51C53.9594 8.51 54.8144 8.747 55.5164 9.221C56.2244 9.689 56.7494 10.352 57.0914 11.21C57.4334 12.068 57.5624 13.079 57.4784 14.243H55.3274V13.451C55.3214 12.395 55.1354 11.624 54.7694 11.138C54.4034 10.652 53.8274 10.409 53.0414 10.409C52.1534 10.409 51.4934 10.685 51.0614 11.237C50.6294 11.783 50.4134 12.584 50.4134 13.64C50.4134 14.624 50.6294 15.386 51.0614 15.926C51.4934 16.466 52.1234 16.736 52.9514 16.736C53.4854 16.736 53.9444 16.619 54.3284 16.385C54.7184 16.145 55.0184 15.8 55.2284 15.35L57.3704 15.998C56.9984 16.874 56.4224 17.555 55.6424 18.041C54.8684 18.527 54.0134 18.77 53.0774 18.77ZM49.7294 14.243V12.605H56.4164V14.243H49.7294ZM65.9459 18.5V13.82C65.9459 13.514 65.9249 13.175 65.8829 12.803C65.8409 12.431 65.7419 12.074 65.5859 11.732C65.4359 11.384 65.2079 11.099 64.9019 10.877C64.6019 10.655 64.1939 10.544 63.6779 10.544C63.4019 10.544 63.1289 10.589 62.8589 10.679C62.5889 10.769 62.3429 10.925 62.1209 11.147C61.9049 11.363 61.7309 11.663 61.5989 12.047C61.4669 12.425 61.4009 12.911 61.4009 13.505L60.1139 12.956C60.1139 12.128 60.2729 11.378 60.5909 10.706C60.9149 10.034 61.3889 9.5 62.0129 9.104C62.6369 8.702 63.4049 8.501 64.3169 8.501C65.0369 8.501 65.6309 8.621 66.0989 8.861C66.5669 9.101 66.9389 9.407 67.2149 9.779C67.4909 10.151 67.6949 10.547 67.8269 10.967C67.9589 11.387 68.0429 11.786 68.0789 12.164C68.1209 12.536 68.1419 12.839 68.1419 13.073V18.5H65.9459ZM59.2049 18.5V8.78H61.1399V11.795H61.4009V18.5H59.2049ZM76.1875 18.5C75.5455 18.62 74.9155 18.671 74.2975 18.653C73.6855 18.641 73.1365 18.53 72.6505 18.32C72.1645 18.104 71.7955 17.765 71.5435 17.303C71.3215 16.883 71.2045 16.454 71.1925 16.016C71.1805 15.578 71.1745 15.083 71.1745 14.531V6.08H73.3345V14.405C73.3345 14.795 73.3375 15.137 73.3435 15.431C73.3555 15.725 73.4185 15.965 73.5325 16.151C73.7485 16.511 74.0935 16.712 74.5675 16.754C75.0415 16.796 75.5815 16.772 76.1875 16.682V18.5ZM69.4105 10.481V8.78H76.1875V10.481H69.4105ZM82.0784 18.77C81.1064 18.77 80.2574 18.551 79.5314 18.113C78.8054 17.675 78.2414 17.072 77.8394 16.304C77.4434 15.53 77.2454 14.642 77.2454 13.64C77.2454 12.62 77.4494 11.726 77.8574 10.958C78.2654 10.19 78.8324 9.59 79.5584 9.158C80.2844 8.726 81.1244 8.51 82.0784 8.51C83.0564 8.51 83.9084 8.729 84.6344 9.167C85.3604 9.605 85.9244 10.211 86.3264 10.985C86.7284 11.753 86.9294 12.638 86.9294 13.64C86.9294 14.648 86.7254 15.539 86.3174 16.313C85.9154 17.081 85.3514 17.684 84.6254 18.122C83.8994 18.554 83.0504 18.77 82.0784 18.77ZM82.0784 16.736C82.9424 16.736 83.5844 16.448 84.0044 15.872C84.4244 15.296 84.6344 14.552 84.6344 13.64C84.6344 12.698 84.4214 11.948 83.9954 11.39C83.5694 10.826 82.9304 10.544 82.0784 10.544C81.4964 10.544 81.0164 10.676 80.6384 10.94C80.2664 11.198 79.9904 11.561 79.8104 12.029C79.6304 12.491 79.5404 13.028 79.5404 13.64C79.5404 14.582 79.7534 15.335 80.1794 15.899C80.6114 16.457 81.2444 16.736 82.0784 16.736ZM88.9123 18.5V8.78H90.8293V11.147L90.5953 10.841C90.7153 10.517 90.8743 10.223 91.0723 9.959C91.2763 9.689 91.5193 9.467 91.8013 9.293C92.0413 9.131 92.3053 9.005 92.5933 8.915C92.8873 8.819 93.1873 8.762 93.4933 8.744C93.7993 8.72 94.0963 8.732 94.3843 8.78V10.805C94.0963 10.721 93.7633 10.694 93.3853 10.724C93.0133 10.754 92.6773 10.859 92.3773 11.039C92.0773 11.201 91.8313 11.408 91.6393 11.66C91.4533 11.912 91.3153 12.2 91.2253 12.524C91.1353 12.842 91.0903 13.187 91.0903 13.559V18.5H88.9123ZM105.186 18.77C103.89 18.77 102.78 18.488 101.856 17.924C100.932 17.354 100.221 16.562 99.7233 15.548C99.2313 14.534 98.9853 13.358 98.9853 12.02C98.9853 10.682 99.2313 9.506 99.7233 8.492C100.221 7.478 100.932 6.689 101.856 6.125C102.78 5.555 103.89 5.27 105.186 5.27C106.68 5.27 107.925 5.645 108.921 6.395C109.917 7.139 110.616 8.144 111.018 9.41L108.831 10.013C108.579 9.167 108.15 8.507 107.544 8.033C106.938 7.553 106.152 7.313 105.186 7.313C104.316 7.313 103.59 7.508 103.008 7.898C102.432 8.288 101.997 8.837 101.703 9.545C101.415 10.247 101.268 11.072 101.262 12.02C101.262 12.968 101.406 13.796 101.694 14.504C101.988 15.206 102.426 15.752 103.008 16.142C103.59 16.532 104.316 16.727 105.186 16.727C106.152 16.727 106.938 16.487 107.544 16.007C108.15 15.527 108.579 14.867 108.831 14.027L111.018 14.63C110.616 15.896 109.917 16.904 108.921 17.654C107.925 18.398 106.68 18.77 105.186 18.77ZM117.287 18.77C116.315 18.77 115.466 18.551 114.74 18.113C114.014 17.675 113.45 17.072 113.048 16.304C112.652 15.53 112.454 14.642 112.454 13.64C112.454 12.62 112.658 11.726 113.066 10.958C113.474 10.19 114.041 9.59 114.767 9.158C115.493 8.726 116.333 8.51 117.287 8.51C118.265 8.51 119.117 8.729 119.843 9.167C120.569 9.605 121.133 10.211 121.535 10.985C121.937 11.753 122.138 12.638 122.138 13.64C122.138 14.648 121.934 15.539 121.526 16.313C121.124 17.081 120.56 17.684 119.834 18.122C119.108 18.554 118.259 18.77 117.287 18.77ZM117.287 16.736C118.151 16.736 118.793 16.448 119.213 15.872C119.633 15.296 119.843 14.552 119.843 13.64C119.843 12.698 119.63 11.948 119.204 11.39C118.778 10.826 118.139 10.544 117.287 10.544C116.705 10.544 116.225 10.676 115.847 10.94C115.475 11.198 115.199 11.561 115.019 12.029C114.839 12.491 114.749 13.028 114.749 13.64C114.749 14.582 114.962 15.335 115.388 15.899C115.82 16.457 116.453 16.736 117.287 16.736ZM130.844 18.5V13.82C130.844 13.514 130.823 13.175 130.781 12.803C130.739 12.431 130.64 12.074 130.484 11.732C130.334 11.384 130.106 11.099 129.8 10.877C129.5 10.655 129.092 10.544 128.576 10.544C128.3 10.544 128.027 10.589 127.757 10.679C127.487 10.769 127.241 10.925 127.019 11.147C126.803 11.363 126.629 11.663 126.497 12.047C126.365 12.425 126.299 12.911 126.299 13.505L125.012 12.956C125.012 12.128 125.171 11.378 125.489 10.706C125.813 10.034 126.287 9.5 126.911 9.104C127.535 8.702 128.303 8.501 129.215 8.501C129.935 8.501 130.529 8.621 130.997 8.861C131.465 9.101 131.837 9.407 132.113 9.779C132.389 10.151 132.593 10.547 132.725 10.967C132.857 11.387 132.941 11.786 132.977 12.164C133.019 12.536 133.04 12.839 133.04 13.073V18.5H130.844ZM124.103 18.5V8.78H126.038V11.795H126.299V18.5H124.103ZM142.112 18.5V13.82C142.112 13.514 142.091 13.175 142.049 12.803C142.007 12.431 141.908 12.074 141.752 11.732C141.602 11.384 141.374 11.099 141.068 10.877C140.768 10.655 140.36 10.544 139.844 10.544C139.568 10.544 139.295 10.589 139.025 10.679C138.755 10.769 138.509 10.925 138.287 11.147C138.071 11.363 137.897 11.663 137.765 12.047C137.633 12.425 137.567 12.911 137.567 13.505L136.28 12.956C136.28 12.128 136.439 11.378 136.757 10.706C137.081 10.034 137.555 9.5 138.179 9.104C138.803 8.702 139.571 8.501 140.483 8.501C141.203 8.501 141.797 8.621 142.265 8.861C142.733 9.101 143.105 9.407 143.381 9.779C143.657 10.151 143.861 10.547 143.993 10.967C144.125 11.387 144.209 11.786 144.245 12.164C144.287 12.536 144.308 12.839 144.308 13.073V18.5H142.112ZM135.371 18.5V8.78H137.306V11.795H137.567V18.5H135.371ZM150.917 18.77C149.933 18.77 149.069 18.557 148.325 18.131C147.581 17.705 146.999 17.114 146.579 16.358C146.165 15.602 145.958 14.732 145.958 13.748C145.958 12.686 146.162 11.765 146.57 10.985C146.978 10.199 147.545 9.59 148.271 9.158C148.997 8.726 149.837 8.51 150.791 8.51C151.799 8.51 152.654 8.747 153.356 9.221C154.064 9.689 154.589 10.352 154.931 11.21C155.273 12.068 155.402 13.079 155.318 14.243H153.167V13.451C153.161 12.395 152.975 11.624 152.609 11.138C152.243 10.652 151.667 10.409 150.881 10.409C149.993 10.409 149.333 10.685 148.901 11.237C148.469 11.783 148.253 12.584 148.253 13.64C148.253 14.624 148.469 15.386 148.901 15.926C149.333 16.466 149.963 16.736 150.791 16.736C151.325 16.736 151.784 16.619 152.168 16.385C152.558 16.145 152.858 15.8 153.068 15.35L155.21 15.998C154.838 16.874 154.262 17.555 153.482 18.041C152.708 18.527 151.853 18.77 150.917 18.77ZM147.569 14.243V12.605H154.256V14.243H147.569ZM161.547 18.77C160.545 18.77 159.69 18.548 158.982 18.104C158.274 17.654 157.731 17.042 157.353 16.268C156.981 15.494 156.792 14.618 156.786 13.64C156.792 12.644 156.987 11.762 157.371 10.994C157.761 10.22 158.313 9.614 159.027 9.176C159.741 8.732 160.59 8.51 161.574 8.51C162.678 8.51 163.611 8.789 164.373 9.347C165.141 9.899 165.642 10.655 165.876 11.615L163.716 12.2C163.548 11.678 163.269 11.273 162.879 10.985C162.489 10.691 162.045 10.544 161.547 10.544C160.983 10.544 160.518 10.679 160.152 10.949C159.786 11.213 159.516 11.579 159.342 12.047C159.168 12.515 159.081 13.046 159.081 13.64C159.081 14.564 159.288 15.311 159.702 15.881C160.116 16.451 160.731 16.736 161.547 16.736C162.123 16.736 162.576 16.604 162.906 16.34C163.242 16.076 163.494 15.695 163.662 15.197L165.876 15.692C165.576 16.682 165.051 17.444 164.301 17.978C163.551 18.506 162.633 18.77 161.547 18.77ZM173.377 18.5C172.735 18.62 172.105 18.671 171.487 18.653C170.875 18.641 170.326 18.53 169.84 18.32C169.354 18.104 168.985 17.765 168.733 17.303C168.511 16.883 168.394 16.454 168.382 16.016C168.37 15.578 168.364 15.083 168.364 14.531V6.08H170.524V14.405C170.524 14.795 170.527 15.137 170.533 15.431C170.545 15.725 170.608 15.965 170.722 16.151C170.938 16.511 171.283 16.712 171.757 16.754C172.231 16.796 172.771 16.772 173.377 16.682V18.5ZM166.6 10.481V8.78H173.377V10.481H166.6Z" fill="#121417"/>
<defs>
<clipPath id="clip0_16_6">
<rect width="16" height="16" fill="white" transform="translate(0 4)"/>
</clipPath>
</defs>
</svg>
